PathFileType	4	(X/Y/Z)	C:\Users\adpatrick\OneDrive - nih.no\Desktop\WebApp1080sync\WebAppv0.1\fp22_m505_left 2_Sports2D\fp22_m505_left 2_Sports2D_px_person00.trc
DataRate	CameraRate	NumFrames	NumMarkers	Units	OrigDataRate	OrigDataStartFrame	OrigNumFrames
60	60	5	22	m	60	543	869
Frame#	Time	Hip			RHip			RKnee			RAnkle			RBigToe			RSmallToe			RHeel			LHip			LKnee			LAnkle			LBigToe			LSmallToe			LHeel			Neck			Head			Nose			RShoulder			RElbow			RWrist			LShoulder			LElbow			LWrist		
		X1	Y1	Z1	X2	Y2	Z2	X3	Y3	Z3	X4	Y4	Z4	X5	Y5	Z5	X6	Y6	Z6	X7	Y7	Z7	X8	Y8	Z8	X9	Y9	Z9	X10	Y10	Z10	X11	Y11	Z11	X12	Y12	Z12	X13	Y13	Z13	X14	Y14	Z14	X15	Y15	Z15	X16	Y16	Z16	X17	Y17	Z17	X18	Y18	Z18	X19	Y19	Z19	X20	Y20	Z20	X21	Y21	Z21	X22	Y22	Z22
543	9.05	1185.8970841718353	596.5150930302963	0.0	1171.9537335655193	600.9524595272529	0.0	1278.5835655924818	650.3489308409897	0.0	1223.3347948104165	735.5331949139427	0.0	1260.605536276084	771.4206278614457	0.0	1248.6597682154807	772.5163612300498	0.0	1206.815213475334	745.299110453367	0.0	1201.009245859045	593.9124340550375	0.0	1282.7800483811743	646.2516873067815	0.0	1262.0965489198115	740.1730894612834	0.0	1297.5115039518068	769.5462291706153	0.0	1292.574421891249	765.4526811566551	0.0	1249.6812930614774	754.0337685555659	0.0	1192.7078865008473	470.5034792383465	0.0	1223.4089151862888	402.53701687521345	0.0	1231.700373743418	444.9430380810346	0.0	1162.2009552222805	493.8524555806446	0.0	1128.7611180500223	569.3470304877264	0.0	1144.0354925178237	637.8225013759612	0.0	1209.912763430096	483.0492570334515	0.0	1208.5270188174547	545.1364612400426	0.0	1251.0008531436847	572.4567260350966	0.0
544	9.066666666666666	1200.3388935062162	597.9958000674792	0.0	1185.7426936071815	603.0663733787997	0.0	1294.7083554102878	649.6297705171312	0.0	1257.4415967992495	739.081277377614	0.0	1298.206347399993	772.6392688147334	0.0	1287.1527378255396	774.8533434727143	0.0	1243.2533567123767	751.1097603300035	0.0	1216.5366043107426	594.6326640165186	0.0	1300.6941137619083	643.3572151742122	0.0	1266.7360288057453	734.8061371810999	0.0	1297.1249527992609	767.7875107083156	0.0	1293.865796724397	763.9096931907025	0.0	1251.6089245279288	747.5436244528114	0.0	1208.4432642212641	473.4402057854168	0.0	1239.5842386874333	404.8709220980579	0.0	1246.9651193061882	448.05217401737093	0.0	1175.6202818101115	496.77318984853537	0.0	1141.272573635141	570.9875974093692	0.0	1153.7085259782498	640.8486216728172	0.0	1227.2412605257132	484.7050156660041	0.0	1226.6681254092446	542.9296875358816	0.0	1269.2670540956503	570.5869817064029	0.0
545	9.083333333333334	1215.2070961172856	599.6251187715313	0.0	1199.8712009834192	605.5560869920271	0.0	1309.0778033286804	651.6338713879574	0.0	1291.4099682329168	743.9986266025737	0.0	1334.499982010455	775.1313963522058	0.0	1324.2351310949155	778.3639248678696	0.0	1280.2673269627585	757.6541884997416	0.0	1232.7193049139948	595.2723220684512	0.0	1319.2532024137736	640.9847580419175	0.0	1274.4107748360932	729.178952694835	0.0	1300.4916831727726	764.7178008553566	0.0	1298.4919339113721	760.789143982656	0.0	1257.215588404494	740.1260947053739	0.0	1224.0254343390384	476.34440555219317	0.0	1255.3707434749945	407.3472890107432	0.0	1262.111647787948	451.27481885972685	0.0	1189.2144987926004	499.5191589567805	0.0	1153.4230609392466	572.1645868651729	0.0	1163.9939598281212	643.0283855402085	0.0	1244.212336337709	486.60388412874823	0.0	1243.891976322421	541.478080008669	0.0	1285.356203360291	570.3119413177305	0.0
546	9.1	1230.5201916627148	601.387280499085	0.0	1214.39684041562	608.397485607655	0.0	1322.0883713535886	656.0261653717483	0.0	1322.8495013328627	749.6493238965669	0.0	1366.8590753713934	778.5159592375073	0.0	1356.875962840316	782.6176322102999	0.0	1314.9807534664212	764.2927325823177	0.0	1249.4494606501473	595.9757638911705	0.0	1337.988570922504	639.6662586196774	0.0	1286.1611977653138	724.2033073907605	0.0	1309.4439941398737	760.3775144477534	0.0	1308.2422493224135	756.2260969390117	0.0	1267.8779910818887	733.1471657990485	0.0	1239.5279395308348	479.3787876237925	0.0	1270.8488986252873	410.3018381439668	0.0	1277.256651370425	454.77319498757566	0.0	1203.1881296362355	502.2636168475947	0.0	1165.3605962132726	573.2549727975327	0.0	1175.2605529665725	644.5453479313173	0.0	1260.7664480963606	488.8246509532951	0.0	1259.615007642518	541.3825068792619	0.0	1298.8360291877648	571.3014570205476	0.0
547	9.116666666666667	1246.0838920326514	603.214797692514	0.0	1229.1852005761702	611.3538797289539	0.0	1334.3028192715442	661.7862976966801	0.0	1349.571416489748	755.2711468225148	0.0	1393.2177692964656	782.103358165043	0.0	1382.823814788629	787.0007124938063	0.0	1344.5292429876706	770.4951478852531	0.0	1266.374311003758	596.8059617347991	0.0	1356.3223262845315	639.6420678097235	0.0	1302.7087269320477	720.5857866302367	0.0	1325.4775691228288	755.0195520423331	0.0	1324.734982570398	750.674414267676	0.0	1284.3246776451842	728.107151566793	0.0	1254.9768366157666	482.70021130188195	0.0	1286.232693220734	413.87253589256	0.0	1292.5014673740147	458.6200890047431	0.0	1217.585138136605	505.18826595896877	0.0	1177.3139884378593	574.6439449277044	0.0	1187.6502934217547	645.7860394907317	0.0	1276.8355152492943	491.3974229248542	0.0	1273.3960517993746	542.9744537926285	0.0	1309.752470065141	573.3143659277135	0.0
